<?xml version="1.0" standalone="no"?><!DOCTYPE svg PUBLIC "-//W3C//DTD SVG 1.1//EN" "http://www.w3.org/Graphics/SVG/1.1/DTD/svg11.dtd">
<svg version="1.1" id="图层_1" xmlns="http://www.w3.org/2000/svg" xmlns:xlink="http://www.w3.org/1999/xlink" x="0px" y="0px"
	 viewBox="0 0 31.2 31.2" style="enable-background:new 0 0 31.2 31.2;" xml:space="preserve">
<style type="text/css">
	.st0{fill:#231815;}
</style>
<g id="XMLID_186_">
	<g id="XMLID_83_">
		<path id="XMLID_84_" class="st0" d="M24.1,0.2H7.1c-3.8,0-6.9,3.1-6.9,6.9v17.1c0,3.8,3.1,6.9,6.9,6.9h17.1c3.8,0,6.9-3.1,6.9-6.9
			V7.1C31,3.3,27.9,0.2,24.1,0.2z M15.5,21.9h0.1c2.2,0,4-1.8,4-4v-7.7h1.3v7.7c0,2.9-2.4,5.3-5.3,5.3h-0.1c-2.9,0-5.3-2.4-5.3-5.3
			v-7.7h1.3v7.7C11.5,20.1,13.3,21.9,15.5,21.9z M15.6,23.6c3.2,0,5.8-2.6,5.8-5.8v-7.7h1.3v7.7c0,3.9-3.2,7.1-7.1,7.1
			s-7.1-3.2-7.1-7.1v-7.7h1.3v7.7C9.8,21,12.4,23.6,15.6,23.6z M9.2,4.3l2.4,4.2H6.8L9.2,4.3z M24.3,18.1c0,4.8-3.9,8.7-8.7,8.7
			S6.8,23,6.8,18.1v-8h1.3v8c0,4.1,3.3,7.5,7.5,7.5s7.5-3.3,7.5-7.5v-8h1.3V18.1z M24.4,8.5l-4.8,0V6.7c0-1.3,1.1-2.4,2.4-2.4
			c1.3,0,2.4,1.1,2.4,2.4V8.5z"/>
	</g>
</g>
</svg>
